<?xml version="1.0" standalone="no"?>
<!DOCTYPE svg PUBLIC "-//W3C//DTD SVG 20010904//EN"
 "http://www.w3.org/TR/2001/REC-SVG-20010904/DTD/svg10.dtd">
<svg version="1.0" xmlns="http://www.w3.org/2000/svg"
 width="98.000000pt" height="98.000000pt" viewBox="0 0 98.000000 98.000000"
 preserveAspectRatio="xMidYMid meet">

<g transform="translate(0.000000,98.000000) scale(0.100000,-0.100000)"
fill="#000000" stroke="none">
<path d="M777 829 c-109 -26 -190 -98 -273 -243 -27 -47 -54 -88 -61 -90 -7
-3 -10 1 -7 7 2 7 -23 52 -56 100 l-61 87 -50 0 -49 0 85 -127 c47 -71 85
-135 85 -143 0 -21 -106 -142 -165 -188 -64 -50 -107 -72 -142 -72 -19 0 -24
-3 -16 -11 16 -16 116 7 178 40 27 14 82 58 122 97 l72 70 42 -63 41 -63 53 0
54 0 -65 95 c-36 53 -70 93 -75 90 -12 -8 0 19 32 75 15 25 46 78 69 119 79
137 142 189 263 215 l62 14 -50 0 c-27 0 -67 -4 -88 -9z"/>
<path d="M415 696 c-30 -45 20 -91 64 -59 25 17 27 46 5 67 -23 23 -51 20 -69
-8z"/>
</g>
</svg>
